HIERARCHY
ROOT Hips
{
	OFFSET -13.091600 -28.302996 44.698402
	CHANNELS 6 Xposition Yposition Zposition Zrotation Xrotation Yrotation
	JOINT Chest
	{
		OFFSET -0.673000 0.623899 5.369202
		CHANNELS 6 Xposition Yposition Zposition Zrotation Xrotation Yrotation
		JOINT Chest2
		{
			OFFSET 0.000000 0.000000 4.415001
			CHANNELS 6 Xposition Yposition Zposition Zrotation Xrotation Yrotation
			JOINT Neck
			{
				OFFSET 0.000000 0.000002 10.273300
				CHANNELS 6 Xposition Yposition Zposition Zrotation Xrotation Yrotation
				JOINT Head
				{
					OFFSET 0.000000 0.000000 2.173897
					CHANNELS 6 Xposition Yposition Zposition Zrotation Xrotation Yrotation
					End Site
					{
						OFFSET 0.000000 0.000000 9.961800
					}
				}
			}
			JOINT LeftCollar
			{
				OFFSET 2.359900 -0.565201 5.928101
				CHANNELS 6 Xposition Yposition Zposition Zrotation Xrotation Yrotation
				JOINT LeftShoulder
				{
					OFFSET 5.443700 0.000000 0.000000
					CHANNELS 6 Xposition Yposition Zposition Zrotation Xrotation Yrotation
					JOINT LeftElbow
					{
						OFFSET 0.000000 0.000000 -10.615799
						CHANNELS 6 Xposition Yposition Zposition Zrotation Xrotation Yrotation
						JOINT LeftWrist
						{
							OFFSET 0.000000 -0.000002 -13.110302
							CHANNELS 6 Xposition Yposition Zposition Zrotation Xrotation Yrotation
							End Site
							{
								OFFSET 0.000000 0.000000 -2.173901
							}
						}
					}
				}
			}
			JOINT RightCollar
			{
				OFFSET -2.636600 -1.718800 6.889698
				CHANNELS 6 Xposition Yposition Zposition Zrotation Xrotation Yrotation
				JOINT RightShoulder
				{
					OFFSET -4.139101 0.000000 0.000000
					CHANNELS 6 Xposition Yposition Zposition Zrotation Xrotation Yrotation
					JOINT RightElbow
					{
						OFFSET 0.000000 0.000000 -10.471802
						CHANNELS 6 Xposition Yposition Zposition Zrotation Xrotation Yrotation
						JOINT RightWrist
						{
							OFFSET 0.000000 0.000000 -12.281898
							CHANNELS 6 Xposition Yposition Zposition Zrotation Xrotation Yrotation
							End Site
							{
								OFFSET 0.000000 -0.000002 -2.173901
							}
						}
					}
				}
			}
		}
	}
	JOINT LeftHip
	{
		OFFSET 2.273400 0.176701 -2.518002
		CHANNELS 6 Xposition Yposition Zposition Zrotation Xrotation Yrotation
		JOINT LeftKnee
		{
			OFFSET 0.000000 -0.000002 -20.456402
			CHANNELS 6 Xposition Yposition Zposition Zrotation Xrotation Yrotation
			JOINT LeftAnkle
			{
				OFFSET 0.000000 -0.000002 -16.635300
				CHANNELS 6 Xposition Yposition Zposition Zrotation Xrotation Yrotation
				End Site
				{
					OFFSET 0.000000 -8.812399 0.000001
				}
			}
		}
	}
	JOINT RightHip
	{
		OFFSET -1.914800 0.018101 -2.699299
		CHANNELS 6 Xposition Yposition Zposition Zrotation Xrotation Yrotation
		JOINT RightKnee
		{
			OFFSET 0.000000 -0.000002 -20.148901
			CHANNELS 6 Xposition Yposition Zposition Zrotation Xrotation Yrotation
			JOINT RightAnkle
			{
				OFFSET 0.000000 -0.000002 -16.838301
				CHANNELS 6 Xposition Yposition Zposition Zrotation Xrotation Yrotation
				End Site
				{
					OFFSET 0.000000 -8.328398 0.000001
				}
			}
		}
	}
}
MOTION
Frames: 8
Frame Time: 0.041667
-13.570903 22.142107 31.021603 1498.379907 43.325597 -14.318164 -0.672997 0.623905 5.369211 10.101174 36.478271 7.566828 -0.000002 -0.000002 4.415005 -2.593491 -8.777221 -0.900502 -0.000004 0.000007 10.273303 -8.520806 -9.554998 12.209774 -0.000004 -0.000000 2.173902 -0.823122 -8.891787 -3.362480 2.359898 -0.565200 5.928102 -0.582992 10.216195 9.485865 5.443700 0.000003 -0.000005 -66.981268 -7.985476 -131.935458 -0.000002 0.000003 -10.615796 700.349620 -110.100532 339.539304 0.000002 0.000001 -13.110300 -58.139267 -182.379028 236.759000 -2.636606 -1.718803 6.889701 224.685124 -216.714171 168.662793 -4.139091 0.000000 -0.000005 435.090891 -388.907174 502.123160 0.000003 -0.000006 -10.471799 10.609225 1.009547 -357.833146 0.000000 -0.000002 -12.281896 360.764144 15.721738 26.935353 2.273402 0.176706 -2.518002 -65.578593 -135.651177 -49.515699 0.000002 -0.000002 -20.456398 42.745359 170.350491 -77.308486 -0.000007 -0.000004 -16.635298 56.576222 -0.766703 31.412180 -1.914794 0.018113 -2.699300 49.691774 201.726263 81.109220 0.000001 -0.000008 -20.148899 187.301122 24.557877 -125.477118 -0.000001 0.000000 -16.838301 -72.673213 19.248289 -29.678763
-13.556805 22.154802 31.070202 1497.574382 43.296334 -13.773962 -0.673000 0.623903 5.369215 9.125286 36.418733 8.384010 0.000002 -0.000007 4.415003 -2.375024 -8.665827 -0.882897 -0.000003 -0.000002 10.273305 -7.893671 -9.457828 12.065988 -0.000003 -0.000008 2.173902 -0.668757 -9.111850 -3.307654 2.359897 -0.565199 5.928100 -1.231201 10.479071 9.461960 5.443692 0.000004 -0.000006 -66.350015 -8.680639 -131.495854 -0.000004 0.000008 -10.615797 698.883479 -110.322814 338.413252 0.000005 0.000000 -13.110292 -57.883948 -182.391555 238.129737 -2.636600 -1.718805 6.889699 223.236373 -216.747352 170.413957 -4.139101 -0.000001 0.000005 440.023053 -390.785804 502.874918 0.000002 -0.000005 -10.471795 12.337755 0.516469 -357.970679 0.000005 -0.000002 -12.281900 362.010763 15.127119 28.424527 2.273397 0.176703 -2.518000 -65.361079 -135.553970 -49.933027 0.000003 -0.000005 -20.456396 42.805359 171.285080 -77.430399 -0.000004 -0.000006 -16.635300 57.302316 -0.965698 31.876076 -1.914796 0.018106 -2.699298 48.955050 201.181282 82.850714 0.000000 -0.000005 -20.148901 188.525338 25.391008 -123.645098 -0.000002 -0.000001 -16.838301 -72.863311 20.787896 -30.038738
-13.555599 22.164400 31.111902 1496.750934 43.262831 -13.233040 -0.672999 0.623891 5.369203 8.163901 36.315665 9.198258 0.000001 -0.000000 4.415001 -2.212704 -8.518419 -0.864591 -0.000001 -0.000001 10.273304 -7.075403 -9.384560 11.900014 0.000000 -0.000001 2.173897 -0.594203 -9.316394 -3.241016 2.359897 -0.565196 5.928103 -1.674698 10.552629 9.423544 5.443696 0.000007 -0.000005 -65.874169 -9.174314 -130.909632 -0.000001 0.000001 -10.615795 697.080364 -110.481199 336.876678 -0.000002 0.000001 -13.110301 -57.782772 -182.357950 239.462935 -2.636599 -1.718799 6.889697 222.224180 -216.748322 171.828230 -4.139094 -0.000001 0.000002 443.242804 -391.798174 503.153480 0.000002 -0.000001 -10.471800 12.757984 -0.153361 -358.172087 -0.000001 -0.000002 -12.281897 363.413875 14.675145 29.826439 2.273400 0.176701 -2.518006 -65.063945 -135.458948 -50.311423 0.000000 -0.000002 -20.456394 42.823158 171.643542 -77.446730 -0.000001 -0.000004 -16.635300 57.525281 -1.125541 32.087088 -1.914798 0.018101 -2.699306 48.219455 200.640905 84.516160 0.000002 -0.000003 -20.148907 189.923013 27.014249 -121.933671 -0.000003 0.000002 -16.838303 -72.387643 21.916892 -29.870166
-13.569202 22.176004 31.142603 1495.885304 43.180135 -12.695231 -0.672997 0.623886 5.369207 7.351364 36.249255 9.941561 0.000003 0.000001 4.415002 -2.131743 -8.409073 -0.854521 -0.000001 0.000007 10.273311 -6.107476 -9.241836 11.686858 -0.000002 0.000000 2.173898 -0.646810 -9.447178 -3.150969 2.359896 -0.565199 5.928105 -1.957171 10.444306 9.516304 5.443699 0.000008 -0.000003 -65.457022 -9.259418 -130.123819 -0.000001 -0.000001 -10.615798 695.710720 -110.524461 335.470916 -0.000001 0.000002 -13.110300 -57.531319 -182.249828 240.626526 -2.636600 -1.718797 6.889703 221.677300 -216.610365 172.618182 -4.139097 0.000004 0.000003 444.596001 -391.801152 502.767329 0.000001 -0.000005 -10.471795 12.534449 -0.975732 -358.444639 0.000002 -0.000006 -12.281898 364.317099 14.399577 31.248105 2.273397 0.176697 -2.518007 -64.725420 -135.339816 -50.679710 0.000001 -0.000003 -20.456394 42.831665 171.377520 -77.371365 -0.000002 -0.000003 -16.635298 57.276221 -1.193038 32.011024 -1.914799 0.018102 -2.699299 47.487891 200.121128 86.075212 0.000002 -0.000004 -20.148903 191.693685 29.972998 -120.588438 -0.000002 0.000002 -16.838301 -70.950134 22.626069 -28.366385
-13.599403 22.189608 31.164103 1494.963829 43.065712 -12.156234 -0.672997 0.623899 5.369208 6.731042 36.223065 10.611396 0.000003 0.000001 4.415005 -2.141039 -8.333586 -0.849935 0.000001 -0.000005 10.273300 -5.083253 -9.076680 11.466918 -0.000002 -0.000011 2.173902 -0.761596 -9.495752 -3.046459 2.359899 -0.565204 5.928101 -2.257269 10.336572 9.581068 5.443697 -0.000005 0.000004 -65.138169 -9.530811 -129.296219 -0.000002 0.000005 -10.615795 694.301515 -110.588549 334.139630 0.000002 0.000008 -13.110302 -57.599463 -182.350259 242.581545 -2.636596 -1.718805 6.889697 221.303115 -216.339849 173.068989 -4.139095 -0.000003 0.000001 445.024773 -391.295937 501.957596 0.000002 -0.000006 -10.471798 12.189516 -1.861048 -358.743364 0.000001 -0.000005 -12.281897 365.201909 14.556914 32.447913 2.273401 0.176706 -2.518006 -64.330266 -135.191696 -51.018067 0.000000 -0.000002 -20.456398 42.793321 170.339399 -77.191950 -0.000000 -0.000006 -16.635298 56.433492 -1.146278 31.553592 -1.914795 0.018106 -2.699302 46.824119 199.643329 87.521245 0.000005 -0.000003 -20.148911 194.223300 35.158221 -120.029018 -0.000003 0.000003 -16.838299 -67.810234 23.062455 -24.971971
-13.647204 22.210112 31.174101 1493.976566 42.869624 -11.670798 -0.672997 0.623892 5.369211 6.209284 36.264114 11.260835 0.000001 0.000004 4.415005 -2.233472 -8.269515 -0.848719 -0.000001 -0.000003 10.273303 -3.967775 -8.868189 11.321121 -0.000003 -0.000004 2.173901 -0.889276 -9.494599 -2.971102 2.359901 -0.565199 5.928102 -2.569837 10.209275 9.661784 5.443696 0.000000 -0.000004 -64.838296 -9.970186 -128.400016 -0.000003 0.000008 -10.615797 693.130274 -110.649160 333.112834 0.000006 0.000005 -13.110296 -57.204129 -182.127500 243.238500 -2.636598 -1.718807 6.889696 221.327021 -216.101994 173.188285 -4.139090 -0.000003 0.000001 444.597203 -390.415498 500.972683 -0.000000 -0.000004 -10.471796 11.332559 -2.788605 -359.011272 -0.000002 -0.000002 -12.281900 365.932193 14.464445 33.427656 2.273398 0.176697 -2.518000 -64.018817 -135.126181 -51.461954 0.000003 -0.000005 -20.456398 42.666969 169.291757 -76.980685 -0.000005 -0.000004 -16.635300 55.620788 -1.073246 31.121887 -1.914795 0.018102 -2.699298 46.087613 199.184121 88.720148 0.000000 -0.000003 -20.148907 196.736946 40.787475 -119.885557 -0.000000 -0.000002 -16.838301 -64.256589 22.782340 -21.163351
-13.712901 22.237608 31.173401 1492.930837 42.620090 -11.262784 -0.672998 0.623899 5.369207 5.772542 36.354064 11.941711 0.000002 0.000002 4.415005 -2.395059 -8.223650 -0.850111 0.000001 0.000000 10.273305 -2.785511 -8.624531 11.201435 -0.000001 0.000000 2.173903 -1.064213 -9.458857 -2.902718 2.359899 -0.565204 5.928093 -2.853572 10.101685 9.719548 5.443699 0.000002 -0.000001 -64.669911 -10.671199 -127.473733 -0.000003 0.000009 -10.615794 692.263715 -110.640322 332.581527 0.000003 0.000004 -13.110301 -56.833943 -182.067271 243.825787 -2.636596 -1.718801 6.889694 221.627331 -215.867705 172.966700 -4.139094 0.000002 -0.000004 443.661194 -389.221690 499.945696 0.000001 -0.000004 -10.471799 10.155250 -3.785410 -359.489959 0.000002 -0.000004 -12.281903 366.614584 14.488573 34.606615 2.273398 0.176703 -2.518002 -63.784466 -135.167285 -51.995297 0.000005 -0.000003 -20.456394 42.471711 168.537841 -76.786844 -0.000004 -0.000004 -16.635296 55.088751 -1.006931 30.873825 -1.914798 0.018105 -2.699301 45.250481 198.714983 89.583682 0.000003 0.000001 -20.148911 199.381705 46.714679 -120.370527 -0.000000 -0.000001 -16.838303 -60.268128 22.211878 -16.785736
-13.796204 22.275110 31.160704 1491.820740 42.295250 -10.905184 -0.673003 0.623897 5.369207 5.317037 36.495220 12.661032 0.000000 0.000005 4.415010 -2.582661 -8.170559 -0.850187 -0.000000 0.000005 10.273301 -1.585558 -8.417521 11.160123 -0.000001 -0.000006 2.173900 -1.191873 -9.380451 -2.844845 2.359899 -0.565192 5.928102 -3.019697 9.973977 9.813409 5.443692 0.000006 0.000005 -64.440683 -11.291739 -126.484298 -0.000004 0.000005 -10.615795 692.328574 -110.468386 332.769466 0.000001 0.000008 -13.110300 -56.138349 -182.030470 244.342969 -2.636595 -1.718801 6.889696 221.760738 -215.682334 173.055888 -4.139091 0.000001 0.000002 443.250727 -388.446491 499.027718 0.000003 -0.000005 -10.471796 9.222310 -4.688389 -359.868406 0.000001 -0.000002 -12.281897 367.454752 14.536494 35.827938 2.273397 0.176708 -2.518006 -63.641736 -135.321251 -52.631187 0.000003 -0.000002 -20.456394 42.215432 168.160241 -76.605325 -0.000003 -0.000005 -16.635302 54.933016 -0.918972 30.741213 -1.914800 0.018106 -2.699301 44.348671 198.264218 90.146811 -0.000000 0.000001 -20.148903 201.723299 51.834203 -121.122490 -0.000006 -0.000002 -16.838301 -56.475955 21.287413 -13.079013
